<?xml version="1.0" standalone="no"?>
<!DOCTYPE svg PUBLIC "-//W3C//DTD SVG 20010904//EN"
 "http://www.w3.org/TR/2001/REC-SVG-20010904/DTD/svg10.dtd">
<svg version="1.0" xmlns="http://www.w3.org/2000/svg"
 width="737.000000pt" height="737.000000pt" viewBox="0 0 737.000000 737.000000"
 preserveAspectRatio="xMidYMid meet">
<metadata>
Created by potrace 1.11, written by Peter Selinger 2001-2013
</metadata>
<g transform="translate(0.000000,737.000000) scale(0.100000,-0.100000)"
fill="#000000" stroke="none">
<path d="M3539 7276 c-2 -2 -35 -6 -74 -10 -274 -23 -588 -127 -848 -279 -77
-46 -240 -161 -284 -201 -6 -6 -41 -38 -78 -71 -167 -150 -345 -388 -453 -604
-70 -138 -145 -340 -166 -447 -3 -11 -9 -39 -14 -64 -6 -25 -13 -65 -17 -90
-3 -25 -8 -56 -10 -70 -15 -99 -18 -211 -19 -726 l-1 -582 -62 -73 c-33 -41
-70 -83 -81 -95 -59 -62 -236 -281 -281 -348 -86 -127 -165 -306 -186 -421
-37 -206 -37 -202 -38 -1275 0 -948 1 -1053 17 -1128 81 -397 372 -679 776
-755 50 -10 509 -12 1980 -11 1053 0 1931 4 1950 8 19 3 49 9 65 12 175 33
341 127 480 269 102 105 170 215 216 348 54 159 54 151 53 1267 -1 878 -4
1088 -20 1177 -56 317 -143 473 -492 876 l-137 158 -1 557 c-1 481 -7 722 -19
742 -1 3 -6 30 -9 61 -4 31 -18 103 -32 160 -90 375 -286 723 -559 994 -112
111 -119 118 -231 202 -152 115 -324 211 -506 281 -100 39 -284 92 -373 107
-22 4 -51 8 -65 11 -112 18 -467 33 -481 20z m371 -720 c14 -4 41 -9 60 -12
112 -19 315 -95 413 -155 26 -16 50 -29 53 -29 3 0 48 -31 99 -70 91 -68 203
-176 266 -255 157 -199 268 -469 295 -720 9 -89 11 -565 2 -565 -4 0 -53 24
-110 54 -256 136 -550 235 -828 280 -19 4 -46 8 -60 11 -13 3 -54 7 -90 11
-36 3 -76 7 -90 10 -29 5 -402 5 -440 0 -14 -2 -56 -7 -95 -11 -38 -4 -79 -9
-90 -11 -10 -2 -37 -6 -60 -10 -251 -36 -593 -154 -847 -291 -54 -29 -99 -53
-100 -53 -9 0 1 548 11 615 63 413 279 753 624 982 55 36 131 80 171 98 71 33
232 90 278 99 101 18 146 26 168 29 39 6 342 0 370 -7z m-1375 -2510 c250 -69
437 -251 517 -506 33 -107 33 -283 0 -390 -80 -255 -259 -432 -507 -501 -101
-28 -257 -30 -360 -5 -199 48 -385 196 -474 378 -40 82 -81 244 -81 322 0 33
11 104 24 156 60 240 173 384 381 486 133 65 218 85 340 80 55 -2 127 -11 160
-20z m2615 -31 c82 -22 208 -87 270 -141 165 -141 244 -312 244 -529 0 -203
-55 -336 -199 -481 -74 -75 -105 -99 -175 -133 -240 -116 -482 -102 -695 40
-219 147 -339 405 -305 657 40 302 275 548 574 602 66 12 216 4 286 -15z
m-842 -2260 c-2 -2 -134 54 -293 123 l-290 127 -3 370 -2 370 296 -493 c163
-271 294 -495 292 -497z m-643 249 c-25 -18 -555 -247 -560 -242 -3 3 124 222
282 488 l288 483 3 -359 c2 -310 0 -361 -13 -370z m-1944 183 c68 -52 32 -167
-53 -167 -42 0 -68 17 -83 54 -27 65 12 126 79 126 23 0 48 -6 57 -13z m338
-17 c28 -14 44 -61 32 -93 -32 -84 -151 -64 -151 26 0 55 69 94 119 67z m3291
-305 c-17 -132 -37 -249 -44 -260 -11 -16 -117 -65 -289 -134 -11 -4 -7 35 28
309 26 195 39 255 57 266 6 4 70 28 142 55 128 47 131 47 134 26 1 -12 -11
-130 -28 -262z m-2998 208 c22 -20 23 -70 1 -95 -20 -22 -70 -23 -95 -1 -26
23 -24 78 4 97 29 21 67 20 90 -1z m-437 -48 c69 -68 -23 -175 -102 -120 -30
21 -38 66 -19 103 25 49 82 57 121 17z m294 -47 c31 -54 -18 -110 -81 -95 -33
9 -53 54 -39 89 12 31 25 38 71 35 26 -2 38 -9 49 -29z m1467 -635 c-2 -2
-140 76 -306 174 -167 97 -299 178 -294 180 5 2 142 61 304 132 l295 130 3
-306 c1 -168 1 -308 -2 -310z m356 481 c163 -71 294 -132 290 -136 -10 -9
-590 -348 -597 -348 -3 0 -5 140 -5 311 0 170 3 308 8 306 4 -2 141 -62 304
-133z m-1614 90 c39 -27 19 -104 -27 -104 -55 0 -82 74 -39 104 12 9 27 16 33
16 6 0 21 -7 33 -16z m-146 -81 c24 -21 23 -58 -2 -83 -27 -27 -46 -25 -76 5
-18 19 -23 31 -19 48 14 46 63 61 97 30z m-587 -38 c0 -25 -4 -31 -27 -33 -19
-2 -28 2 -33 18 -8 27 12 52 39 48 16 -2 21 -10 21 -33z m92 19 c3 -8 -1 -23
-10 -31 -21 -21 -47 -9 -47 22 0 20 5 25 25 25 14 0 28 -7 32 -16z m290 -16
c-3 -7 -5 -2 -5 12 0 14 2 19 5 13 2 -7 2 -19 0 -25z m-473 -20 c15 -24 -3
-52 -37 -56 -33 -4 -53 28 -37 59 14 25 58 23 74 -3z m857 -8 c22 -12 26 -59
7 -78 -14 -14 -47 -15 -67 -3 -20 13 -17 62 5 78 22 16 29 16 55 3z m-963 -42
c20 -20 14 -56 -13 -74 -23 -15 -27 -15 -50 0 -44 29 -28 86 25 86 14 0 31 -5
38 -12z m333 2 c23 -13 25 -55 3 -64 -42 -16 -74 30 -42 62 15 15 15 15 39 2z
m293 -29 c25 -27 17 -72 -15 -90 -24 -13 -29 -13 -53 2 -17 12 -26 26 -26 44
0 55 59 83 94 44z m-384 -5 c16 -20 9 -56 -12 -70 -40 -24 -80 44 -42 71 23
17 39 16 54 -1z m572 -13 c35 -31 12 -83 -37 -83 -40 0 -59 55 -29 84 20 21
43 20 66 -1z m3308 -35 c-1 -56 -28 -173 -42 -182 -18 -11 -782 -333 -785
-331 -9 6 23 180 36 196 14 17 748 336 779 338 6 1 12 -9 12 -21z m-4232 -14
c42 -29 16 -104 -37 -104 -24 0 -51 32 -51 61 0 27 30 59 55 59 6 0 21 -7 33
-16z m243 6 c22 -12 26 -59 7 -78 -7 -7 -21 -12 -33 -12 -29 0 -45 19 -45 52
0 39 34 57 71 38z m297 -12 c17 -17 15 -53 -3 -68 -12 -10 -21 -10 -40 -2 -29
13 -33 43 -9 66 19 19 36 20 52 4z m548 -13 c8 -33 -12 -57 -45 -53 -18 2 -27
10 -29 26 -6 37 5 52 37 52 24 0 32 -5 37 -25z m-654 -47 c24 -20 28 -44 12
-67 -17 -23 -53 -28 -72 -9 -18 18 -15 65 6 77 23 14 35 13 54 -1z m332 -11
c22 -16 18 -65 -5 -80 -23 -14 -67 0 -74 24 -8 25 19 69 43 69 10 0 26 -6 36
-13z m156 -7 c11 -11 20 -24 20 -29 0 -16 -30 -41 -49 -41 -38 0 -54 45 -25
74 20 21 30 20 54 -4z m-763 -26 c15 -24 15 -29 2 -53 -27 -48 -109 -32 -109
22 0 56 76 77 107 31z m1831 -135 c153 -89 285 -169 295 -178 16 -15 17 -38
15 -259 l-3 -242 -297 420 c-163 231 -294 420 -291 420 2 0 129 -73 281 -161z
m905 93 c-27 -37 -160 -226 -298 -421 l-250 -353 -3 243 c-2 187 1 246 10 256
15 14 569 341 581 342 4 1 -14 -29 -40 -67z m-1838 13 c0 -23 -5 -31 -21 -33
-27 -4 -47 21 -39 48 5 16 14 20 33 18 23 -2 27 -8 27 -33z m-1138 -7 c28 -26
29 -58 5 -88 -22 -27 -76 -30 -100 -6 -23 23 -19 76 7 98 31 24 60 23 88 -4z
m425 -25 c39 -35 7 -98 -48 -91 -18 2 -34 13 -43 29 -13 24 -13 29 2 53 20 30
61 35 89 9z m566 -39 c4 -27 -21 -47 -48 -39 -20 6 -28 44 -13 59 15 15 58 1
61 -20z m-132 -21 c9 -33 -16 -58 -49 -49 -32 8 -41 42 -17 66 24 24 58 15 66
-17z m242 11 c3 -23 -18 -37 -43 -28 -16 6 -20 35 -8 48 14 14 48 1 51 -20z
m-946 -27 c4 -7 8 -26 8 -44 0 -56 -69 -84 -110 -43 -36 36 -20 96 30 112 18
6 62 -9 72 -25z m1286 13 c63 -59 25 -160 -60 -160 -54 0 -88 35 -88 90 0 30
6 47 25 65 31 32 91 34 123 5z m-1098 -76 c35 -41 1 -114 -52 -114 -56 0 -86
60 -52 108 18 27 84 31 104 6z m220 2 c6 -8 10 -25 8 -38 -2 -19 -9 -23 -38
-23 -31 0 -35 3 -38 29 -5 42 41 64 68 32z m647 -31 c72 -51 3 -168 -79 -134
-33 14 -48 37 -48 75 0 60 75 95 127 59z m-533 -21 c30 -29 9 -84 -31 -84 -23
0 -53 29 -53 51 0 23 26 49 50 49 10 0 26 -7 34 -16z m3285 -121 c-10 -76 -18
-148 -19 -160 l0 -23 325 0 c316 0 325 -1 325 -20 0 -51 -24 -173 -37 -186
-12 -12 -87 -14 -473 -14 -252 0 -461 4 -464 9 -7 10 43 393 53 403 6 7 290
127 302 128 3 0 -3 -62 -12 -137z m-3135 88 c25 -27 17 -72 -15 -90 -24 -13
-29 -13 -53 2 -20 13 -26 26 -26 52 0 53 59 75 94 36z m178 2 c22 -20 23 -70
1 -95 -9 -10 -30 -18 -49 -18 -57 0 -85 69 -44 110 24 24 67 26 92 3z m-913
-39 c12 -15 21 -37 21 -49 0 -12 -9 -34 -21 -49 -16 -20 -29 -26 -59 -26 -30
0 -43 6 -59 26 -12 15 -21 37 -21 49 0 12 9 34 21 49 29 37 89 37 118 0z m431
-33 c0 -28 -28 -47 -48 -34 -24 15 -27 44 -7 59 22 17 55 1 55 -25z m-241 -37
c27 -35 26 -66 -2 -100 -45 -52 -137 -17 -137 52 0 66 98 100 139 48z m323
-19 c8 -19 8 -28 -2 -40 -25 -30 -80 -12 -80 25 0 44 63 55 82 15z m643 -30
c71 -70 -25 -177 -100 -112 -22 19 -29 33 -29 62 0 70 79 101 129 50z m-800
-15 c0 -18 -6 -26 -23 -28 -13 -2 -25 3 -28 12 -10 26 4 48 28 44 17 -2 23
-10 23 -28z m263 8 c7 -7 12 -24 12 -38 0 -31 -17 -50 -45 -50 -29 0 -45 19
-45 52 0 40 50 64 78 36z m137 -24 c24 -9 36 -49 25 -79 -12 -32 -53 -42 -85
-21 -59 39 -7 125 60 100z m195 -14 c41 -41 13 -110 -43 -110 -38 0 -50 7 -66
37 -15 30 -14 36 10 67 25 32 70 35 99 6z m-533 -26 c9 -24 -10 -49 -38 -49
-24 0 -36 23 -25 51 7 19 55 18 63 -2z m77 -60 c9 -8 16 -22 16 -29 0 -18 -27
-45 -45 -45 -18 0 -45 27 -45 45 0 18 27 45 45 45 7 0 21 -7 29 -16z m-328
-45 c30 -28 37 -62 20 -102 -33 -80 -150 -68 -172 18 -21 86 87 146 152 84z
m452 -42 c3 -32 0 -37 -22 -43 -48 -12 -74 13 -62 60 7 27 30 36 61 26 14 -5
21 -18 23 -43z m316 2 c35 -28 35 -70 -1 -99 -29 -23 -66 -21 -92 5 -23 22
-18 75 8 97 30 23 52 23 85 -3z m-169 -13 c37 -56 -36 -115 -87 -69 -10 9 -18
26 -18 39 0 53 76 75 105 30z"/>
<path d="M2192 3980 c-115 -30 -206 -83 -292 -170 -84 -84 -129 -154 -168
-262 -23 -65 -26 -87 -26 -198 1 -80 6 -141 15 -170 l15 -45 94 0 95 0 5 273
5 272 205 -205 c113 -113 209 -205 215 -205 6 0 102 92 215 205 113 113 208
205 212 205 5 0 8 -124 8 -275 l0 -275 91 0 90 0 16 38 c24 57 29 232 9 324
-78 353 -453 580 -804 488z"/>
<path d="M2060 3178 l0 -178 -125 0 c-69 0 -125 -4 -125 -9 0 -16 70 -99 122
-145 67 -60 193 -122 283 -141 220 -46 447 20 604 176 42 42 81 95 81 112 0 4
-56 7 -125 7 l-125 0 0 170 c0 94 -3 170 -7 170 -4 0 -72 -64 -151 -142 l-144
-143 -144 150 -144 150 0 -177z"/>
<path d="M4827 3783 c-4 -3 -7 -35 -7 -70 l0 -63 -91 0 -90 0 3 -42 c3 -42 4
-43 43 -46 22 -2 45 -8 52 -14 10 -8 13 -61 13 -207 0 -108 -4 -202 -8 -208
-4 -7 -26 -16 -47 -21 -39 -8 -40 -9 -45 -55 l-6 -47 83 0 83 0 0 -70 0 -70
45 0 45 0 0 70 0 70 30 0 30 0 0 -70 0 -70 45 0 45 0 0 68 0 68 75 18 c125 30
176 78 183 174 5 76 -14 114 -71 143 -55 28 -54 25 -25 57 36 39 48 65 48 109
0 75 -54 127 -144 139 l-45 7 -3 66 -3 66 -42 3 -42 3 -3 -68 -3 -68 -30 0
-30 0 -3 68 -3 67 -38 0 c-21 0 -41 -3 -44 -7z m223 -241 c39 -19 56 -55 46
-95 -9 -38 -71 -67 -141 -67 l-55 0 0 90 0 90 58 0 c34 0 71 -7 92 -18z m21
-253 c19 -7 41 -18 50 -26 41 -35 22 -113 -32 -132 -45 -16 -132 -25 -163 -17
-26 6 -26 8 -26 96 l0 90 69 0 c37 0 83 -5 102 -11z"/>
</g>
</svg>
